<?xml version="1.0" encoding="UTF-8" standalone="no"?>
<svg
   xmlns:dc="http://purl.org/dc/elements/1.1/"
   xmlns:cc="http://creativecommons.org/ns#"
   xmlns:rdf="http://www.w3.org/1999/02/22-rdf-syntax-ns#"
   xmlns:svg="http://www.w3.org/2000/svg"
   xmlns="http://www.w3.org/2000/svg"
   xmlns:sodipodi="http://sodipodi.sourceforge.net/DTD/sodipodi-0.dtd"
   xmlns:inkscape="http://www.inkscape.org/namespaces/inkscape"
   width="2500"
   height="2500"
   viewBox="0 0 192.756 192.756"
   version="1.1"
   id="svg8"
   sodipodi:docname="fdic-member-logo.svg"
   inkscape:version="0.92.4 (5da689c313, 2019-01-14)">
  <metadata
     id="metadata14">
    <rdf:RDF>
      <cc:Work
         rdf:about="">
        <dc:format>image/svg+xml</dc:format>
        <dc:type
           rdf:resource="http://purl.org/dc/dcmitype/StillImage" />
        <dc:title></dc:title>
      </cc:Work>
    </rdf:RDF>
  </metadata>
  <defs
     id="defs12" />
  <sodipodi:namedview
     pagecolor="#ffffff"
     bordercolor="#666666"
     borderopacity="1"
     objecttolerance="10"
     gridtolerance="10"
     guidetolerance="10"
     inkscape:pageopacity="0"
     inkscape:pageshadow="2"
     inkscape:window-width="1512"
     inkscape:window-height="480"
     id="namedview10"
     showgrid="false"
     inkscape:zoom="0.0944"
     inkscape:cx="-2955.5085"
     inkscape:cy="1250"
     inkscape:window-x="0"
     inkscape:window-y="40"
     inkscape:window-maximized="0"
     inkscape:current-layer="g6"
     inkscape:pagecheckerboard="true" />
  <g
     id="g6"
     style="clip-rule:evenodd;fill-rule:evenodd">
    <path
       d="m 47.342,80.759 h 25.574 c 23.057,0 37.764,14.178 37.764,36.308 0,24.514 -16.297,36.439 -42.269,36.439 H 47.342 Z m 23.99,16.686 c -0.928,0 -2.12,0.131 -3.71,0.131 v 39.223 c 12.985,0 23.056,-5.168 23.056,-20.141 0,-12.853 -8.216,-19.213 -19.346,-19.213 z m 118.59,4.493 V 82.723 c -5.168,-2.12 -9.807,-3.313 -16.299,-3.313 -21.334,0 -38.428,16.166 -38.428,37.5 0,21.334 16.828,36.971 38.031,36.971 7.553,0 12.719,-1.592 16.695,-4.639 v -19.213 c -5.963,3.709 -10.07,5.299 -15.637,5.299 -10.732,0 -19.08,-7.816 -19.08,-19.346 0,-11.264 8.48,-19.479 19.08,-19.479 5.831,0.001 10.071,1.989 15.638,5.435 z M 2.834,66.173 v 3.445 H 17.013 V 66.173 C 12.905,66.041 12.242,65.51 12.242,62.728 V 45.369 l 8.48,24.249 H 24.3 L 33.443,45.369 V 62.33 c 0,3.577 0,3.577 -5.035,3.842 v 3.445 H 44.84 v -3.445 c -4.771,0 -4.903,-0.53 -4.903,-3.047 v -16.96 c 0,-2.783 0.397,-3.711 4.903,-3.711 V 38.877 H 30.794 L 23.638,58.356 17.013,38.877 H 2.834 v 3.577 c 3.976,0 4.638,0 4.638,3.445 v 16.299 c 0,3.18 0,3.975 -4.638,3.975 z m 68.753,0 v 3.445 h 13.118 v -3.445 c -3.18,-0.132 -3.18,-0.53 -3.18,-4.903 v -3.71 c 0,-3.578 1.59,-6.493 4.902,-6.493 2.65,0 3.445,1.723 3.445,4.108 v 7.818 c 0,2.65 -0.132,3.18 -3.312,3.18 v 3.445 h 11.792 v -3.445 c -2.782,0 -3.047,-0.265 -3.047,-2.915 v -5.433 c 0,-3.71 1.723,-6.89 5.168,-6.89 2.65,0 3.18,1.59 3.18,4.77 v 7.951 c 0,2.252 0,2.518 -3.18,2.518 v 3.445 h 12.986 v -3.445 c -3.977,0 -4.24,0.132 -4.24,-2.12 v -8.878 c 0,-5.036 -1.193,-7.951 -6.361,-7.951 -3.047,0 -5.035,1.192 -7.553,3.843 -1.325,-2.385 -3.18,-3.975 -6.36,-3.975 -3.313,0 -5.566,1.722 -7.42,4.24 v -3.578 h -9.938 v 3.181 c 3.975,0 4.373,0.132 4.373,3.313 v 7.287 c 0,4.637 0,4.637 -4.373,4.637 z M 3.471,80.759 v 72.747 H 23.479 L 23.612,125.68 H 43.091 V 108.852 H 23.745 L 23.612,97.588 H 44.548 V 80.759 Z M 115.047,38.885 h 9.275 v 11.264 c 2.518,-2.12 4.107,-2.915 6.625,-2.915 5.301,0 8.879,4.77 8.879,11.396 0,7.155 -3.578,11.793 -9.674,11.793 -2.914,0 -4.77,-0.928 -6.758,-3.048 l -1.855,2.518 h -2.781 V 46.041 c 0,-3.578 -0.266,-3.975 -3.711,-3.975 z m 18.557,19.733 c 0,-5.035 -1.855,-7.553 -4.506,-7.553 -3.445,0 -4.902,2.783 -4.902,7.951 0,4.505 1.723,7.553 4.77,7.553 2.516,0 4.638,-2.385 4.638,-7.951 z m 34.443,7.555 v 3.445 h 14.311 v -3.445 c -3.975,0 -4.371,0.132 -4.371,-3.047 v -4.771 c 0,-4.373 1.457,-8.348 5.432,-8.348 0.266,0 0.531,0 1.326,0.265 -1.326,0.663 -2.254,1.59 -2.254,3.048 0,1.723 1.326,2.915 3.049,2.915 2.119,0 3.576,-1.59 3.576,-3.976 0,-2.915 -2.119,-5.035 -5.035,-5.035 -2.385,0 -4.107,1.192 -6.227,3.578 v -3.048 h -9.807 v 3.181 c 3.445,0 4.373,0 4.373,2.915 v 9.01 c 0,3.048 0,3.313 -4.373,3.313 z m -18.02,-6.88 c 0,4.24 1.988,7.155 5.566,7.155 3.18,0 4.637,-1.855 5.168,-4.77 h 3.975 c -0.662,5.565 -4.373,8.613 -9.674,8.613 -6.359,0 -11.131,-3.843 -11.131,-11.263 0,-6.758 4.24,-11.793 10.602,-11.793 6.229,0 10.203,4.77 10.203,12.058 z m 4.506,-8.631 c -2.65,0 -4.24,1.855 -4.24,5.168 h 8.348 c 0,-3.445 -1.325,-5.168 -4.108,-5.168 z M 53.568,59.293 c 0,4.24 2.12,7.155 5.698,7.155 3.18,0 4.637,-1.855 5.167,-4.77 h 3.843 c -0.663,5.565 -4.24,8.613 -9.541,8.613 -6.36,0 -11.263,-3.843 -11.263,-11.263 0,-6.758 4.373,-11.793 10.733,-11.793 6.228,0 10.071,4.77 10.071,12.058 z m 4.637,-8.631 c -2.65,0 -4.24,1.855 -4.24,5.168 h 8.216 C 62.18,52.252 60.855,50.662 58.205,50.662 Z m 54.596,102.844 h 20.01 V 80.759 h -20.01 z"
       id="path4"
       inkscape:connector-curvature="0"
       style="fill:#037C4D" />
  </g>
</svg>
